<?xml version="1.0" standalone="no"?>
<svg xmlns="http://www.w3.org/2000/svg" width="500" height="500"><defs><clipPath id="clip-path-dot-color"><circle cx="30" cy="110" r="5" transform="rotate(0,30,110)"/><circle cx="30" cy="120" r="5" transform="rotate(0,30,120)"/><circle cx="30" cy="140" r="5" transform="rotate(0,30,140)"/><circle cx="30" cy="150" r="5" transform="rotate(0,30,150)"/><circle cx="30" cy="170" r="5" transform="rotate(0,30,170)"/><circle cx="30" cy="190" r="5" transform="rotate(0,30,190)"/><circle cx="30" cy="200" r="5" transform="rotate(0,30,200)"/><circle cx="30" cy="210" r="5" transform="rotate(0,30,210)"/><circle cx="30" cy="240" r="5" transform="rotate(0,30,240)"/><circle cx="30" cy="250" r="5" transform="rotate(0,30,250)"/><circle cx="30" cy="260" r="5" transform="rotate(0,30,260)"/><circle cx="30" cy="270" r="5" transform="rotate(0,30,270)"/><circle cx="30" cy="280" r="5" transform="rotate(0,30,280)"/><circle cx="30" cy="290" r="5" transform="rotate(0,30,290)"/><circle cx="30" cy="300" r="5" transform="rotate(0,30,300)"/><circle cx="30" cy="310" r="5" transform="rotate(0,30,310)"/><circle cx="30" cy="320" r="5" transform="rotate(0,30,320)"/><circle cx="30" cy="330" r="5" transform="rotate(0,30,330)"/><circle cx="30" cy="340" r="5" transform="rotate(0,30,340)"/><circle cx="30" cy="350" r="5" transform="rotate(0,30,350)"/><circle cx="30" cy="360" r="5" transform="rotate(0,30,360)"/><circle cx="30" cy="390" r="5" transform="rotate(0,30,390)"/><circle cx="40" cy="130" r="5" transform="rotate(0,40,130)"/><circle cx="40" cy="140" r="5" transform="rotate(0,40,140)"/><circle cx="40" cy="160" r="5" transform="rotate(0,40,160)"/><circle cx="40" cy="190" r="5" transform="rotate(0,40,190)"/><circle cx="40" cy="240" r="5" transform="rotate(0,40,240)"/><circle cx="40" cy="250" r="5" transform="rotate(0,40,250)"/><circle cx="40" cy="260" r="5" transform="rotate(0,40,260)"/><circle cx="40" cy="270" r="5" transform="rotate(0,40,270)"/><circle cx="40" cy="310" r="5" transform="rotate(0,40,310)"/><circle cx="40" cy="330" r="5" transform="rotate(0,40,330)"/><circle cx="40" cy="340" r="5" transform="rotate(0,40,340)"/><circle cx="40" cy="360" r="5" transform="rotate(0,40,360)"/><circle cx="40" cy="380" r="5" transform="rotate(0,40,380)"/><circle cx="50" cy="110" r="5" transform="rotate(0,50,110)"/><circle cx="50" cy="140" r="5" transform="rotate(0,50,140)"/><circle cx="50" cy="160" r="5" transform="rotate(0,50,160)"/><circle cx="50" cy="170" r="5" transform="rotate(0,50,170)"/><circle cx="50" cy="190" r="5" transform="rotate(0,50,190)"/><circle cx="50" cy="210" r="5" transform="rotate(0,50,210)"/><circle cx="50" cy="220" r="5" transform="rotate(0,50,220)"/><circle cx="50" cy="230" r="5" transform="rotate(0,50,230)"/><circle cx="50" cy="260" r="5" transform="rotate(0,50,260)"/><circle cx="50" cy="280" r="5" transform="rotate(0,50,280)"/><circle cx="50" cy="290" r="5" transform="rotate(0,50,290)"/><circle cx="50" cy="320" r="5" transform="rotate(0,50,320)"/><circle cx="50" cy="330" r="5" transform="rotate(0,50,330)"/><circle cx="50" cy="380" r="5" transform="rotate(0,50,380)"/><circle cx="60" cy="110" r="5" transform="rotate(0,60,110)"/><circle cx="60" cy="150" r="5" transform="rotate(0,60,150)"/><circle cx="60" cy="160" r="5" transform="rotate(0,60,160)"/><circle cx="60" cy="190" r="5" transform="rotate(0,60,190)"/><circle cx="60" cy="200" r="5" transform="rotate(0,60,200)"/><circle cx="60" cy="210" r="5" transform="rotate(0,60,210)"/><circle cx="60" cy="220" r="5" transform="rotate(0,60,220)"/><circle cx="60" cy="230" r="5" transform="rotate(0,60,230)"/><circle cx="60" cy="240" r="5" transform="rotate(0,60,240)"/><circle cx="60" cy="260" r="5" transform="rotate(0,60,260)"/><circle cx="60" cy="280" r="5" transform="rotate(0,60,280)"/><circle cx="60" cy="290" r="5" transform="rotate(0,60,290)"/><circle cx="60" cy="300" r="5" transform="rotate(0,60,300)"/><circle cx="60" cy="360" r="5" transform="rotate(0,60,360)"/><circle cx="60" cy="380" r="5" transform="rotate(0,60,380)"/><circle cx="60" cy="390" r="5" transform="rotate(0,60,390)"/><circle cx="70" cy="120" r="5" transform="rotate(0,70,120)"/><circle cx="70" cy="140" r="5" transform="rotate(0,70,140)"/><circle cx="70" cy="150" r="5" transform="rotate(0,70,150)"/><circle cx="70" cy="170" r="5" transform="rotate(0,70,170)"/><circle cx="70" cy="190" r="5" transform="rotate(0,70,190)"/><circle cx="70" cy="200" r="5" transform="rotate(0,70,200)"/><circle cx="70" cy="230" r="5" transform="rotate(0,70,230)"/><circle cx="70" cy="240" r="5" transform="rotate(0,70,240)"/><circle cx="70" cy="250" r="5" transform="rotate(0,70,250)"/><circle cx="70" cy="260" r="5" transform="rotate(0,70,260)"/><circle cx="70" cy="270" r="5" transform="rotate(0,70,270)"/><circle cx="70" cy="320" r="5" transform="rotate(0,70,320)"/><circle cx="70" cy="330" r="5" transform="rotate(0,70,330)"/><circle cx="70" cy="350" r="5" transform="rotate(0,70,350)"/><circle cx="70" cy="360" r="5" transform="rotate(0,70,360)"/><circle cx="70" cy="370" r="5" transform="rotate(0,70,370)"/><circle cx="70" cy="380" r="5" transform="rotate(0,70,380)"/><circle cx="70" cy="390" r="5" transform="rotate(0,70,390)"/><circle cx="80" cy="110" r="5" transform="rotate(0,80,110)"/><circle cx="80" cy="120" r="5" transform="rotate(0,80,120)"/><circle cx="80" cy="130" r="5" transform="rotate(0,80,130)"/><circle cx="80" cy="160" r="5" transform="rotate(0,80,160)"/><circle cx="80" cy="200" r="5" transform="rotate(0,80,200)"/><circle cx="80" cy="220" r="5" transform="rotate(0,80,220)"/><circle cx="80" cy="230" r="5" transform="rotate(0,80,230)"/><circle cx="80" cy="270" r="5" transform="rotate(0,80,270)"/><circle cx="80" cy="280" r="5" transform="rotate(0,80,280)"/><circle cx="80" cy="290" r="5" transform="rotate(0,80,290)"/><circle cx="80" cy="330" r="5" transform="rotate(0,80,330)"/><circle cx="80" cy="340" r="5" transform="rotate(0,80,340)"/><circle cx="90" cy="110" r="5" transform="rotate(0,90,110)"/><circle cx="90" cy="130" r="5" transform="rotate(0,90,130)"/><circle cx="90" cy="150" r="5" transform="rotate(0,90,150)"/><circle cx="90" cy="170" r="5" transform="rotate(0,90,170)"/><circle cx="90" cy="190" r="5" transform="rotate(0,90,190)"/><circle cx="90" cy="210" r="5" transform="rotate(0,90,210)"/><circle cx="90" cy="230" r="5" transform="rotate(0,90,230)"/><circle cx="90" cy="250" r="5" transform="rotate(0,90,250)"/><circle cx="90" cy="270" r="5" transform="rotate(0,90,270)"/><circle cx="90" cy="290" r="5" transform="rotate(0,90,290)"/><circle cx="90" cy="310" r="5" transform="rotate(0,90,310)"/><circle cx="90" cy="330" r="5" transform="rotate(0,90,330)"/><circle cx="90" cy="350" r="5" transform="rotate(0,90,350)"/><circle cx="90" cy="370" r="5" transform="rotate(0,90,370)"/><circle cx="90" cy="390" r="5" transform="rotate(0,90,390)"/><circle cx="100" cy="110" r="5" transform="rotate(0,100,110)"/><circle cx="100" cy="140" r="5" transform="rotate(0,100,140)"/><circle cx="100" cy="170" r="5" transform="rotate(0,100,170)"/><circle cx="100" cy="210" r="5" transform="rotate(0,100,210)"/><circle cx="100" cy="230" r="5" transform="rotate(0,100,230)"/><circle cx="100" cy="270" r="5" transform="rotate(0,100,270)"/><circle cx="100" cy="280" r="5" transform="rotate(0,100,280)"/><circle cx="100" cy="290" r="5" transform="rotate(0,100,290)"/><circle cx="100" cy="300" r="5" transform="rotate(0,100,300)"/><circle cx="100" cy="320" r="5" transform="rotate(0,100,320)"/><circle cx="100" cy="350" r="5" transform="rotate(0,100,350)"/><circle cx="100" cy="370" r="5" transform="rotate(0,100,370)"/><circle cx="100" cy="390" r="5" transform="rotate(0,100,390)"/><circle cx="110" cy="40" r="5" transform="rotate(0,110,40)"/><circle cx="110" cy="60" r="5" transform="rotate(0,110,60)"/><circle cx="110" cy="80" r="5" transform="rotate(0,110,80)"/><circle cx="110" cy="90" r="5" transform="rotate(0,110,90)"/><circle cx="110" cy="100" r="5" transform="rotate(0,110,100)"/><circle cx="110" cy="110" r="5" transform="rotate(0,110,110)"/><circle cx="110" cy="130" r="5" transform="rotate(0,110,130)"/><circle cx="110" cy="140" r="5" transform="rotate(0,110,140)"/><circle cx="110" cy="160" r="5" transform="rotate(0,110,160)"/><circle cx="110" cy="180" r="5" transform="rotate(0,110,180)"/><circle cx="110" cy="200" r="5" transform="rotate(0,110,200)"/><circle cx="110" cy="220" r="5" transform="rotate(0,110,220)"/><circle cx="110" cy="230" r="5" transform="rotate(0,110,230)"/><circle cx="110" cy="240" r="5" transform="rotate(0,110,240)"/><circle cx="110" cy="250" r="5" transform="rotate(0,110,250)"/><circle cx="110" cy="260" r="5" transform="rotate(0,110,260)"/><circle cx="110" cy="270" r="5" transform="rotate(0,110,270)"/><circle cx="110" cy="280" r="5" transform="rotate(0,110,280)"/><circle cx="110" cy="290" r="5" transform="rotate(0,110,290)"/><circle cx="110" cy="300" r="5" transform="rotate(0,110,300)"/><circle cx="110" cy="310" r="5" transform="rotate(0,110,310)"/><circle cx="110" cy="320" r="5" transform="rotate(0,110,320)"/><circle cx="110" cy="340" r="5" transform="rotate(0,110,340)"/><circle cx="110" cy="360" r="5" transform="rotate(0,110,360)"/><circle cx="110" cy="370" r="5" transform="rotate(0,110,370)"/><circle cx="110" cy="400" r="5" transform="rotate(0,110,400)"/><circle cx="110" cy="410" r="5" transform="rotate(0,110,410)"/><circle cx="110" cy="420" r="5" transform="rotate(0,110,420)"/><circle cx="110" cy="440" r="5" transform="rotate(0,110,440)"/><circle cx="110" cy="450" r="5" transform="rotate(0,110,450)"/><circle cx="110" cy="470" r="5" transform="rotate(0,110,470)"/><circle cx="120" cy="70" r="5" transform="rotate(0,120,70)"/><circle cx="120" cy="110" r="5" transform="rotate(0,120,110)"/><circle cx="120" cy="120" r="5" transform="rotate(0,120,120)"/><circle cx="120" cy="130" r="5" transform="rotate(0,120,130)"/><circle cx="120" cy="140" r="5" transform="rotate(0,120,140)"/><circle cx="120" cy="150" r="5" transform="rotate(0,120,150)"/><circle cx="120" cy="180" r="5" transform="rotate(0,120,180)"/><circle cx="120" cy="190" r="5" transform="rotate(0,120,190)"/><circle cx="120" cy="200" r="5" transform="rotate(0,120,200)"/><circle cx="120" cy="210" r="5" transform="rotate(0,120,210)"/><circle cx="120" cy="230" r="5" transform="rotate(0,120,230)"/><circle cx="120" cy="240" r="5" transform="rotate(0,120,240)"/><circle cx="120" cy="270" r="5" transform="rotate(0,120,270)"/><circle cx="120" cy="300" r="5" transform="rotate(0,120,300)"/><circle cx="120" cy="320" r="5" transform="rotate(0,120,320)"/><circle cx="120" cy="380" r="5" transform="rotate(0,120,380)"/><circle cx="120" cy="420" r="5" transform="rotate(0,120,420)"/><circle cx="120" cy="440" r="5" transform="rotate(0,120,440)"/><circle cx="120" cy="460" r="5" transform="rotate(0,120,460)"/><circle cx="120" cy="470" r="5" transform="rotate(0,120,470)"/><circle cx="130" cy="30" r="5" transform="rotate(0,130,30)"/><circle cx="130" cy="70" r="5" transform="rotate(0,130,70)"/><circle cx="130" cy="90" r="5" transform="rotate(0,130,90)"/><circle cx="130" cy="100" r="5" transform="rotate(0,130,100)"/><circle cx="130" cy="120" r="5" transform="rotate(0,130,120)"/><circle cx="130" cy="130" r="5" transform="rotate(0,130,130)"/><circle cx="130" cy="150" r="5" transform="rotate(0,130,150)"/><circle cx="130" cy="160" r="5" transform="rotate(0,130,160)"/><circle cx="130" cy="190" r="5" transform="rotate(0,130,190)"/><circle cx="130" cy="210" r="5" transform="rotate(0,130,210)"/><circle cx="130" cy="240" r="5" transform="rotate(0,130,240)"/><circle cx="130" cy="250" r="5" transform="rotate(0,130,250)"/><circle cx="130" cy="260" r="5" transform="rotate(0,130,260)"/><circle cx="130" cy="270" r="5" transform="rotate(0,130,270)"/><circle cx="130" cy="280" r="5" transform="rotate(0,130,280)"/><circle cx="130" cy="320" r="5" transform="rotate(0,130,320)"/><circle cx="130" cy="340" r="5" transform="rotate(0,130,340)"/><circle cx="130" cy="350" r="5" transform="rotate(0,130,350)"/><circle cx="130" cy="360" r="5" transform="rotate(0,130,360)"/><circle cx="130" cy="370" r="5" transform="rotate(0,130,370)"/><circle cx="130" cy="380" r="5" transform="rotate(0,130,380)"/><circle cx="130" cy="390" r="5" transform="rotate(0,130,390)"/><circle cx="130" cy="420" r="5" transform="rotate(0,130,420)"/><circle cx="130" cy="440" r="5" transform="rotate(0,130,440)"/><circle cx="130" cy="470" r="5" transform="rotate(0,130,470)"/><circle cx="140" cy="30" r="5" transform="rotate(0,140,30)"/><circle cx="140" cy="60" r="5" transform="rotate(0,140,60)"/><circle cx="140" cy="70" r="5" transform="rotate(0,140,70)"/><circle cx="140" cy="100" r="5" transform="rotate(0,140,100)"/><circle cx="140" cy="120" r="5" transform="rotate(0,140,120)"/><circle cx="140" cy="160" r="5" transform="rotate(0,140,160)"/><circle cx="140" cy="170" r="5" transform="rotate(0,140,170)"/><circle cx="140" cy="210" r="5" transform="rotate(0,140,210)"/><circle cx="140" cy="220" r="5" transform="rotate(0,140,220)"/><circle cx="140" cy="230" r="5" transform="rotate(0,140,230)"/><circle cx="140" cy="250" r="5" transform="rotate(0,140,250)"/><circle cx="140" cy="260" r="5" transform="rotate(0,140,260)"/><circle cx="140" cy="290" r="5" transform="rotate(0,140,290)"/><circle cx="140" cy="310" r="5" transform="rotate(0,140,310)"/><circle cx="140" cy="340" r="5" transform="rotate(0,140,340)"/><circle cx="140" cy="360" r="5" transform="rotate(0,140,360)"/><circle cx="140" cy="370" r="5" transform="rotate(0,140,370)"/><circle cx="140" cy="390" r="5" transform="rotate(0,140,390)"/><circle cx="140" cy="400" r="5" transform="rotate(0,140,400)"/><circle cx="140" cy="420" r="5" transform="rotate(0,140,420)"/><circle cx="140" cy="440" r="5" transform="rotate(0,140,440)"/><circle cx="140" cy="460" r="5" transform="rotate(0,140,460)"/><circle cx="140" cy="470" r="5" transform="rotate(0,140,470)"/><circle cx="150" cy="30" r="5" transform="rotate(0,150,30)"/><circle cx="150" cy="40" r="5" transform="rotate(0,150,40)"/><circle cx="150" cy="80" r="5" transform="rotate(0,150,80)"/><circle cx="150" cy="90" r="5" transform="rotate(0,150,90)"/><circle cx="150" cy="130" r="5" transform="rotate(0,150,130)"/><circle cx="150" cy="160" r="5" transform="rotate(0,150,160)"/><circle cx="150" cy="180" r="5" transform="rotate(0,150,180)"/><circle cx="150" cy="260" r="5" transform="rotate(0,150,260)"/><circle cx="150" cy="270" r="5" transform="rotate(0,150,270)"/><circle cx="150" cy="280" r="5" transform="rotate(0,150,280)"/><circle cx="150" cy="290" r="5" transform="rotate(0,150,290)"/><circle cx="150" cy="300" r="5" transform="rotate(0,150,300)"/><circle cx="150" cy="310" r="5" transform="rotate(0,150,310)"/><circle cx="150" cy="320" r="5" transform="rotate(0,150,320)"/><circle cx="150" cy="340" r="5" transform="rotate(0,150,340)"/><circle cx="150" cy="350" r="5" transform="rotate(0,150,350)"/><circle cx="150" cy="360" r="5" transform="rotate(0,150,360)"/><circle cx="150" cy="400" r="5" transform="rotate(0,150,400)"/><circle cx="150" cy="410" r="5" transform="rotate(0,150,410)"/><circle cx="150" cy="420" r="5" transform="rotate(0,150,420)"/><circle cx="150" cy="430" r="5" transform="rotate(0,150,430)"/><circle cx="150" cy="470" r="5" transform="rotate(0,150,470)"/><circle cx="160" cy="30" r="5" transform="rotate(0,160,30)"/><circle cx="160" cy="40" r="5" transform="rotate(0,160,40)"/><circle cx="160" cy="50" r="5" transform="rotate(0,160,50)"/><circle cx="160" cy="80" r="5" transform="rotate(0,160,80)"/><circle cx="160" cy="100" r="5" transform="rotate(0,160,100)"/><circle cx="160" cy="130" r="5" transform="rotate(0,160,130)"/><circle cx="160" cy="200" r="5" transform="rotate(0,160,200)"/><circle cx="160" cy="210" r="5" transform="rotate(0,160,210)"/><circle cx="160" cy="230" r="5" transform="rotate(0,160,230)"/><circle cx="160" cy="240" r="5" transform="rotate(0,160,240)"/><circle cx="160" cy="250" r="5" transform="rotate(0,160,250)"/><circle cx="160" cy="310" r="5" transform="rotate(0,160,310)"/><circle cx="160" cy="340" r="5" transform="rotate(0,160,340)"/><circle cx="160" cy="360" r="5" transform="rotate(0,160,360)"/><circle cx="160" cy="370" r="5" transform="rotate(0,160,370)"/><circle cx="160" cy="440" r="5" transform="rotate(0,160,440)"/><circle cx="160" cy="460" r="5" transform="rotate(0,160,460)"/><circle cx="160" cy="470" r="5" transform="rotate(0,160,470)"/><circle cx="170" cy="50" r="5" transform="rotate(0,170,50)"/><circle cx="170" cy="70" r="5" transform="rotate(0,170,70)"/><circle cx="170" cy="90" r="5" transform="rotate(0,170,90)"/><circle cx="170" cy="100" r="5" transform="rotate(0,170,100)"/><circle cx="170" cy="120" r="5" transform="rotate(0,170,120)"/><circle cx="170" cy="130" r="5" transform="rotate(0,170,130)"/><circle cx="170" cy="140" r="5" transform="rotate(0,170,140)"/><circle cx="170" cy="150" r="5" transform="rotate(0,170,150)"/><circle cx="170" cy="170" r="5" transform="rotate(0,170,170)"/><circle cx="170" cy="230" r="5" transform="rotate(0,170,230)"/><circle cx="170" cy="240" r="5" transform="rotate(0,170,240)"/><circle cx="170" cy="260" r="5" transform="rotate(0,170,260)"/><circle cx="170" cy="280" r="5" transform="rotate(0,170,280)"/><circle cx="170" cy="290" r="5" transform="rotate(0,170,290)"/><circle cx="170" cy="320" r="5" transform="rotate(0,170,320)"/><circle cx="170" cy="360" r="5" transform="rotate(0,170,360)"/><circle cx="170" cy="380" r="5" transform="rotate(0,170,380)"/><circle cx="170" cy="390" r="5" transform="rotate(0,170,390)"/><circle cx="170" cy="400" r="5" transform="rotate(0,170,400)"/><circle cx="170" cy="410" r="5" transform="rotate(0,170,410)"/><circle cx="170" cy="420" r="5" transform="rotate(0,170,420)"/><circle cx="170" cy="430" r="5" transform="rotate(0,170,430)"/><circle cx="170" cy="440" r="5" transform="rotate(0,170,440)"/><circle cx="170" cy="450" r="5" transform="rotate(0,170,450)"/><circle cx="170" cy="460" r="5" transform="rotate(0,170,460)"/><circle cx="180" cy="50" r="5" transform="rotate(0,180,50)"/><circle cx="180" cy="80" r="5" transform="rotate(0,180,80)"/><circle cx="180" cy="110" r="5" transform="rotate(0,180,110)"/><circle cx="180" cy="120" r="5" transform="rotate(0,180,120)"/><circle cx="180" cy="130" r="5" transform="rotate(0,180,130)"/><circle cx="180" cy="150" r="5" transform="rotate(0,180,150)"/><circle cx="180" cy="190" r="5" transform="rotate(0,180,190)"/><circle cx="180" cy="220" r="5" transform="rotate(0,180,220)"/><circle cx="180" cy="230" r="5" transform="rotate(0,180,230)"/><circle cx="180" cy="240" r="5" transform="rotate(0,180,240)"/><circle cx="180" cy="250" r="5" transform="rotate(0,180,250)"/><circle cx="180" cy="260" r="5" transform="rotate(0,180,260)"/><circle cx="180" cy="270" r="5" transform="rotate(0,180,270)"/><circle cx="180" cy="300" r="5" transform="rotate(0,180,300)"/><circle cx="180" cy="310" r="5" transform="rotate(0,180,310)"/><circle cx="180" cy="320" r="5" transform="rotate(0,180,320)"/><circle cx="180" cy="330" r="5" transform="rotate(0,180,330)"/><circle cx="180" cy="350" r="5" transform="rotate(0,180,350)"/><circle cx="180" cy="360" r="5" transform="rotate(0,180,360)"/><circle cx="180" cy="370" r="5" transform="rotate(0,180,370)"/><circle cx="180" cy="380" r="5" transform="rotate(0,180,380)"/><circle cx="180" cy="420" r="5" transform="rotate(0,180,420)"/><circle cx="180" cy="430" r="5" transform="rotate(0,180,430)"/><circle cx="180" cy="470" r="5" transform="rotate(0,180,470)"/><circle cx="190" cy="40" r="5" transform="rotate(0,190,40)"/><circle cx="190" cy="50" r="5" transform="rotate(0,190,50)"/><circle cx="190" cy="80" r="5" transform="rotate(0,190,80)"/><circle cx="190" cy="90" r="5" transform="rotate(0,190,90)"/><circle cx="190" cy="100" r="5" transform="rotate(0,190,100)"/><circle cx="190" cy="120" r="5" transform="rotate(0,190,120)"/><circle cx="190" cy="130" r="5" transform="rotate(0,190,130)"/><circle cx="190" cy="160" r="5" transform="rotate(0,190,160)"/><circle cx="190" cy="170" r="5" transform="rotate(0,190,170)"/><circle cx="190" cy="180" r="5" transform="rotate(0,190,180)"/><circle cx="190" cy="190" r="5" transform="rotate(0,190,190)"/><circle cx="190" cy="210" r="5" transform="rotate(0,190,210)"/><circle cx="190" cy="230" r="5" transform="rotate(0,190,230)"/><circle cx="190" cy="260" r="5" transform="rotate(0,190,260)"/><circle cx="190" cy="270" r="5" transform="rotate(0,190,270)"/><circle cx="190" cy="320" r="5" transform="rotate(0,190,320)"/><circle cx="190" cy="330" r="5" transform="rotate(0,190,330)"/><circle cx="190" cy="340" r="5" transform="rotate(0,190,340)"/><circle cx="190" cy="350" r="5" transform="rotate(0,190,350)"/><circle cx="190" cy="370" r="5" transform="rotate(0,190,370)"/><circle cx="190" cy="380" r="5" transform="rotate(0,190,380)"/><circle cx="190" cy="400" r="5" transform="rotate(0,190,400)"/><circle cx="190" cy="410" r="5" transform="rotate(0,190,410)"/><circle cx="190" cy="420" r="5" transform="rotate(0,190,420)"/><circle cx="190" cy="440" r="5" transform="rotate(0,190,440)"/><circle cx="190" cy="450" r="5" transform="rotate(0,190,450)"/><circle cx="200" cy="30" r="5" transform="rotate(0,200,30)"/><circle cx="200" cy="100" r="5" transform="rotate(0,200,100)"/><circle cx="200" cy="110" r="5" transform="rotate(0,200,110)"/><circle cx="200" cy="130" r="5" transform="rotate(0,200,130)"/><circle cx="200" cy="170" r="5" transform="rotate(0,200,170)"/><circle cx="200" cy="210" r="5" transform="rotate(0,200,210)"/><circle cx="200" cy="220" r="5" transform="rotate(0,200,220)"/><circle cx="200" cy="240" r="5" transform="rotate(0,200,240)"/><circle cx="200" cy="260" r="5" transform="rotate(0,200,260)"/><circle cx="200" cy="270" r="5" transform="rotate(0,200,270)"/><circle cx="200" cy="290" r="5" transform="rotate(0,200,290)"/><circle cx="200" cy="300" r="5" transform="rotate(0,200,300)"/><circle cx="200" cy="310" r="5" transform="rotate(0,200,310)"/><circle cx="200" cy="320" r="5" transform="rotate(0,200,320)"/><circle cx="200" cy="350" r="5" transform="rotate(0,200,350)"/><circle cx="200" cy="360" r="5" transform="rotate(0,200,360)"/><circle cx="200" cy="410" r="5" transform="rotate(0,200,410)"/><circle cx="200" cy="460" r="5" transform="rotate(0,200,460)"/><circle cx="210" cy="40" r="5" transform="rotate(0,210,40)"/><circle cx="210" cy="50" r="5" transform="rotate(0,210,50)"/><circle cx="210" cy="60" r="5" transform="rotate(0,210,60)"/><circle cx="210" cy="90" r="5" transform="rotate(0,210,90)"/><circle cx="210" cy="120" r="5" transform="rotate(0,210,120)"/><circle cx="210" cy="130" r="5" transform="rotate(0,210,130)"/><circle cx="210" cy="140" r="5" transform="rotate(0,210,140)"/><circle cx="210" cy="150" r="5" transform="rotate(0,210,150)"/><circle cx="210" cy="160" r="5" transform="rotate(0,210,160)"/><circle cx="210" cy="180" r="5" transform="rotate(0,210,180)"/><circle cx="210" cy="220" r="5" transform="rotate(0,210,220)"/><circle cx="210" cy="230" r="5" transform="rotate(0,210,230)"/><circle cx="210" cy="240" r="5" transform="rotate(0,210,240)"/><circle cx="210" cy="260" r="5" transform="rotate(0,210,260)"/><circle cx="210" cy="290" r="5" transform="rotate(0,210,290)"/><circle cx="210" cy="380" r="5" transform="rotate(0,210,380)"/><circle cx="210" cy="430" r="5" transform="rotate(0,210,430)"/><circle cx="210" cy="440" r="5" transform="rotate(0,210,440)"/><circle cx="210" cy="460" r="5" transform="rotate(0,210,460)"/><circle cx="210" cy="470" r="5" transform="rotate(0,210,470)"/><circle cx="220" cy="70" r="5" transform="rotate(0,220,70)"/><circle cx="220" cy="80" r="5" transform="rotate(0,220,80)"/><circle cx="220" cy="100" r="5" transform="rotate(0,220,100)"/><circle cx="220" cy="120" r="5" transform="rotate(0,220,120)"/><circle cx="220" cy="150" r="5" transform="rotate(0,220,150)"/><circle cx="220" cy="180" r="5" transform="rotate(0,220,180)"/><circle cx="220" cy="190" r="5" transform="rotate(0,220,190)"/><circle cx="220" cy="210" r="5" transform="rotate(0,220,210)"/><circle cx="220" cy="230" r="5" transform="rotate(0,220,230)"/><circle cx="220" cy="240" r="5" transform="rotate(0,220,240)"/><circle cx="220" cy="260" r="5" transform="rotate(0,220,260)"/><circle cx="220" cy="300" r="5" transform="rotate(0,220,300)"/><circle cx="220" cy="310" r="5" transform="rotate(0,220,310)"/><circle cx="220" cy="320" r="5" transform="rotate(0,220,320)"/><circle cx="220" cy="350" r="5" transform="rotate(0,220,350)"/><circle cx="220" cy="360" r="5" transform="rotate(0,220,360)"/><circle cx="220" cy="370" r="5" transform="rotate(0,220,370)"/><circle cx="220" cy="380" r="5" transform="rotate(0,220,380)"/><circle cx="220" cy="400" r="5" transform="rotate(0,220,400)"/><circle cx="220" cy="420" r="5" transform="rotate(0,220,420)"/><circle cx="230" cy="30" r="5" transform="rotate(0,230,30)"/><circle cx="230" cy="40" r="5" transform="rotate(0,230,40)"/><circle cx="230" cy="60" r="5" transform="rotate(0,230,60)"/><circle cx="230" cy="70" r="5" transform="rotate(0,230,70)"/><circle cx="230" cy="80" r="5" transform="rotate(0,230,80)"/><circle cx="230" cy="90" r="5" transform="rotate(0,230,90)"/><circle cx="230" cy="100" r="5" transform="rotate(0,230,100)"/><circle cx="230" cy="110" r="5" transform="rotate(0,230,110)"/><circle cx="230" cy="120" r="5" transform="rotate(0,230,120)"/><circle cx="230" cy="140" r="5" transform="rotate(0,230,140)"/><circle cx="230" cy="210" r="5" transform="rotate(0,230,210)"/><circle cx="230" cy="220" r="5" transform="rotate(0,230,220)"/><circle cx="230" cy="230" r="5" transform="rotate(0,230,230)"/><circle cx="230" cy="240" r="5" transform="rotate(0,230,240)"/><circle cx="230" cy="250" r="5" transform="rotate(0,230,250)"/><circle cx="230" cy="260" r="5" transform="rotate(0,230,260)"/><circle cx="230" cy="270" r="5" transform="rotate(0,230,270)"/><circle cx="230" cy="280" r="5" transform="rotate(0,230,280)"/><circle cx="230" cy="310" r="5" transform="rotate(0,230,310)"/><circle cx="230" cy="330" r="5" transform="rotate(0,230,330)"/><circle cx="230" cy="340" r="5" transform="rotate(0,230,340)"/><circle cx="230" cy="360" r="5" transform="rotate(0,230,360)"/><circle cx="230" cy="370" r="5" transform="rotate(0,230,370)"/><circle cx="230" cy="380" r="5" transform="rotate(0,230,380)"/><circle cx="230" cy="390" r="5" transform="rotate(0,230,390)"/><circle cx="230" cy="400" r="5" transform="rotate(0,230,400)"/><circle cx="230" cy="410" r="5" transform="rotate(0,230,410)"/><circle cx="230" cy="420" r="5" transform="rotate(0,230,420)"/><circle cx="230" cy="430" r="5" transform="rotate(0,230,430)"/><circle cx="230" cy="440" r="5" transform="rotate(0,230,440)"/><circle cx="230" cy="450" r="5" transform="rotate(0,230,450)"/><circle cx="230" cy="460" r="5" transform="rotate(0,230,460)"/><circle cx="240" cy="30" r="5" transform="rotate(0,240,30)"/><circle cx="240" cy="40" r="5" transform="rotate(0,240,40)"/><circle cx="240" cy="50" r="5" transform="rotate(0,240,50)"/><circle cx="240" cy="60" r="5" transform="rotate(0,240,60)"/><circle cx="240" cy="70" r="5" transform="rotate(0,240,70)"/><circle cx="240" cy="110" r="5" transform="rotate(0,240,110)"/><circle cx="240" cy="130" r="5" transform="rotate(0,240,130)"/><circle cx="240" cy="170" r="5" transform="rotate(0,240,170)"/><circle cx="240" cy="180" r="5" transform="rotate(0,240,180)"/><circle cx="240" cy="200" r="5" transform="rotate(0,240,200)"/><circle cx="240" cy="230" r="5" transform="rotate(0,240,230)"/><circle cx="240" cy="270" r="5" transform="rotate(0,240,270)"/><circle cx="240" cy="280" r="5" transform="rotate(0,240,280)"/><circle cx="240" cy="340" r="5" transform="rotate(0,240,340)"/><circle cx="240" cy="350" r="5" transform="rotate(0,240,350)"/><circle cx="240" cy="360" r="5" transform="rotate(0,240,360)"/><circle cx="240" cy="390" r="5" transform="rotate(0,240,390)"/><circle cx="240" cy="430" r="5" transform="rotate(0,240,430)"/><circle cx="240" cy="440" r="5" transform="rotate(0,240,440)"/><circle cx="240" cy="450" r="5" transform="rotate(0,240,450)"/><circle cx="240" cy="460" r="5" transform="rotate(0,240,460)"/><circle cx="250" cy="50" r="5" transform="rotate(0,250,50)"/><circle cx="250" cy="60" r="5" transform="rotate(0,250,60)"/><circle cx="250" cy="70" r="5" transform="rotate(0,250,70)"/><circle cx="250" cy="90" r="5" transform="rotate(0,250,90)"/><circle cx="250" cy="110" r="5" transform="rotate(0,250,110)"/><circle cx="250" cy="120" r="5" transform="rotate(0,250,120)"/><circle cx="250" cy="140" r="5" transform="rotate(0,250,140)"/><circle cx="250" cy="160" r="5" transform="rotate(0,250,160)"/><circle cx="250" cy="170" r="5" transform="rotate(0,250,170)"/><circle cx="250" cy="180" r="5" transform="rotate(0,250,180)"/><circle cx="250" cy="190" r="5" transform="rotate(0,250,190)"/><circle cx="250" cy="220" r="5" transform="rotate(0,250,220)"/><circle cx="250" cy="230" r="5" transform="rotate(0,250,230)"/><circle cx="250" cy="250" r="5" transform="rotate(0,250,250)"/><circle cx="250" cy="270" r="5" transform="rotate(0,250,270)"/><circle cx="250" cy="290" r="5" transform="rotate(0,250,290)"/><circle cx="250" cy="340" r="5" transform="rotate(0,250,340)"/><circle cx="250" cy="350" r="5" transform="rotate(0,250,350)"/><circle cx="250" cy="360" r="5" transform="rotate(0,250,360)"/><circle cx="250" cy="370" r="5" transform="rotate(0,250,370)"/><circle cx="250" cy="380" r="5" transform="rotate(0,250,380)"/><circle cx="250" cy="390" r="5" transform="rotate(0,250,390)"/><circle cx="250" cy="410" r="5" transform="rotate(0,250,410)"/><circle cx="250" cy="430" r="5" transform="rotate(0,250,430)"/><circle cx="250" cy="450" r="5" transform="rotate(0,250,450)"/><circle cx="250" cy="470" r="5" transform="rotate(0,250,470)"/><circle cx="260" cy="30" r="5" transform="rotate(0,260,30)"/><circle cx="260" cy="50" r="5" transform="rotate(0,260,50)"/><circle cx="260" cy="60" r="5" transform="rotate(0,260,60)"/><circle cx="260" cy="70" r="5" transform="rotate(0,260,70)"/><circle cx="260" cy="110" r="5" transform="rotate(0,260,110)"/><circle cx="260" cy="120" r="5" transform="rotate(0,260,120)"/><circle cx="260" cy="220" r="5" transform="rotate(0,260,220)"/><circle cx="260" cy="230" r="5" transform="rotate(0,260,230)"/><circle cx="260" cy="270" r="5" transform="rotate(0,260,270)"/><circle cx="260" cy="280" r="5" transform="rotate(0,260,280)"/><circle cx="260" cy="290" r="5" transform="rotate(0,260,290)"/><circle cx="260" cy="310" r="5" transform="rotate(0,260,310)"/><circle cx="260" cy="360" r="5" transform="rotate(0,260,360)"/><circle cx="260" cy="390" r="5" transform="rotate(0,260,390)"/><circle cx="260" cy="430" r="5" transform="rotate(0,260,430)"/><circle cx="260" cy="440" r="5" transform="rotate(0,260,440)"/><circle cx="260" cy="470" r="5" transform="rotate(0,260,470)"/><circle cx="270" cy="30" r="5" transform="rotate(0,270,30)"/><circle cx="270" cy="50" r="5" transform="rotate(0,270,50)"/><circle cx="270" cy="70" r="5" transform="rotate(0,270,70)"/><circle cx="270" cy="80" r="5" transform="rotate(0,270,80)"/><circle cx="270" cy="90" r="5" transform="rotate(0,270,90)"/><circle cx="270" cy="100" r="5" transform="rotate(0,270,100)"/><circle cx="270" cy="110" r="5" transform="rotate(0,270,110)"/><circle cx="270" cy="120" r="5" transform="rotate(0,270,120)"/><circle cx="270" cy="170" r="5" transform="rotate(0,270,170)"/><circle cx="270" cy="180" r="5" transform="rotate(0,270,180)"/><circle cx="270" cy="190" r="5" transform="rotate(0,270,190)"/><circle cx="270" cy="200" r="5" transform="rotate(0,270,200)"/><circle cx="270" cy="230" r="5" transform="rotate(0,270,230)"/><circle cx="270" cy="240" r="5" transform="rotate(0,270,240)"/><circle cx="270" cy="250" r="5" transform="rotate(0,270,250)"/><circle cx="270" cy="260" r="5" transform="rotate(0,270,260)"/><circle cx="270" cy="270" r="5" transform="rotate(0,270,270)"/><circle cx="270" cy="290" r="5" transform="rotate(0,270,290)"/><circle cx="270" cy="300" r="5" transform="rotate(0,270,300)"/><circle cx="270" cy="310" r="5" transform="rotate(0,270,310)"/><circle cx="270" cy="330" r="5" transform="rotate(0,270,330)"/><circle cx="270" cy="340" r="5" transform="rotate(0,270,340)"/><circle cx="270" cy="350" r="5" transform="rotate(0,270,350)"/><circle cx="270" cy="360" r="5" transform="rotate(0,270,360)"/><circle cx="270" cy="370" r="5" transform="rotate(0,270,370)"/><circle cx="270" cy="380" r="5" transform="rotate(0,270,380)"/><circle cx="270" cy="390" r="5" transform="rotate(0,270,390)"/><circle cx="270" cy="400" r="5" transform="rotate(0,270,400)"/><circle cx="270" cy="410" r="5" transform="rotate(0,270,410)"/><circle cx="270" cy="420" r="5" transform="rotate(0,270,420)"/><circle cx="270" cy="430" r="5" transform="rotate(0,270,430)"/><circle cx="270" cy="440" r="5" transform="rotate(0,270,440)"/><circle cx="280" cy="40" r="5" transform="rotate(0,280,40)"/><circle cx="280" cy="50" r="5" transform="rotate(0,280,50)"/><circle cx="280" cy="110" r="5" transform="rotate(0,280,110)"/><circle cx="280" cy="120" r="5" transform="rotate(0,280,120)"/><circle cx="280" cy="130" r="5" transform="rotate(0,280,130)"/><circle cx="280" cy="140" r="5" transform="rotate(0,280,140)"/><circle cx="280" cy="160" r="5" transform="rotate(0,280,160)"/><circle cx="280" cy="180" r="5" transform="rotate(0,280,180)"/><circle cx="280" cy="190" r="5" transform="rotate(0,280,190)"/><circle cx="280" cy="220" r="5" transform="rotate(0,280,220)"/><circle cx="280" cy="240" r="5" transform="rotate(0,280,240)"/><circle cx="280" cy="250" r="5" transform="rotate(0,280,250)"/><circle cx="280" cy="260" r="5" transform="rotate(0,280,260)"/><circle cx="280" cy="310" r="5" transform="rotate(0,280,310)"/><circle cx="280" cy="340" r="5" transform="rotate(0,280,340)"/><circle cx="280" cy="350" r="5" transform="rotate(0,280,350)"/><circle cx="280" cy="360" r="5" transform="rotate(0,280,360)"/><circle cx="280" cy="370" r="5" transform="rotate(0,280,370)"/><circle cx="280" cy="410" r="5" transform="rotate(0,280,410)"/><circle cx="280" cy="420" r="5" transform="rotate(0,280,420)"/><circle cx="280" cy="430" r="5" transform="rotate(0,280,430)"/><circle cx="280" cy="440" r="5" transform="rotate(0,280,440)"/><circle cx="280" cy="460" r="5" transform="rotate(0,280,460)"/><circle cx="280" cy="470" r="5" transform="rotate(0,280,470)"/><circle cx="290" cy="40" r="5" transform="rotate(0,290,40)"/><circle cx="290" cy="60" r="5" transform="rotate(0,290,60)"/><circle cx="290" cy="70" r="5" transform="rotate(0,290,70)"/><circle cx="290" cy="80" r="5" transform="rotate(0,290,80)"/><circle cx="290" cy="90" r="5" transform="rotate(0,290,90)"/><circle cx="290" cy="100" r="5" transform="rotate(0,290,100)"/><circle cx="290" cy="120" r="5" transform="rotate(0,290,120)"/><circle cx="290" cy="150" r="5" transform="rotate(0,290,150)"/><circle cx="290" cy="210" r="5" transform="rotate(0,290,210)"/><circle cx="290" cy="220" r="5" transform="rotate(0,290,220)"/><circle cx="290" cy="230" r="5" transform="rotate(0,290,230)"/><circle cx="290" cy="240" r="5" transform="rotate(0,290,240)"/><circle cx="290" cy="250" r="5" transform="rotate(0,290,250)"/><circle cx="290" cy="260" r="5" transform="rotate(0,290,260)"/><circle cx="290" cy="270" r="5" transform="rotate(0,290,270)"/><circle cx="290" cy="300" r="5" transform="rotate(0,290,300)"/><circle cx="290" cy="320" r="5" transform="rotate(0,290,320)"/><circle cx="290" cy="340" r="5" transform="rotate(0,290,340)"/><circle cx="290" cy="350" r="5" transform="rotate(0,290,350)"/><circle cx="290" cy="360" r="5" transform="rotate(0,290,360)"/><circle cx="290" cy="380" r="5" transform="rotate(0,290,380)"/><circle cx="290" cy="390" r="5" transform="rotate(0,290,390)"/><circle cx="290" cy="400" r="5" transform="rotate(0,290,400)"/><circle cx="290" cy="420" r="5" transform="rotate(0,290,420)"/><circle cx="290" cy="430" r="5" transform="rotate(0,290,430)"/><circle cx="290" cy="440" r="5" transform="rotate(0,290,440)"/><circle cx="290" cy="450" r="5" transform="rotate(0,290,450)"/><circle cx="300" cy="30" r="5" transform="rotate(0,300,30)"/><circle cx="300" cy="40" r="5" transform="rotate(0,300,40)"/><circle cx="300" cy="50" r="5" transform="rotate(0,300,50)"/><circle cx="300" cy="60" r="5" transform="rotate(0,300,60)"/><circle cx="300" cy="70" r="5" transform="rotate(0,300,70)"/><circle cx="300" cy="80" r="5" transform="rotate(0,300,80)"/><circle cx="300" cy="100" r="5" transform="rotate(0,300,100)"/><circle cx="300" cy="120" r="5" transform="rotate(0,300,120)"/><circle cx="300" cy="130" r="5" transform="rotate(0,300,130)"/><circle cx="300" cy="180" r="5" transform="rotate(0,300,180)"/><circle cx="300" cy="230" r="5" transform="rotate(0,300,230)"/><circle cx="300" cy="270" r="5" transform="rotate(0,300,270)"/><circle cx="300" cy="280" r="5" transform="rotate(0,300,280)"/><circle cx="300" cy="310" r="5" transform="rotate(0,300,310)"/><circle cx="300" cy="320" r="5" transform="rotate(0,300,320)"/><circle cx="300" cy="340" r="5" transform="rotate(0,300,340)"/><circle cx="300" cy="350" r="5" transform="rotate(0,300,350)"/><circle cx="300" cy="370" r="5" transform="rotate(0,300,370)"/><circle cx="300" cy="390" r="5" transform="rotate(0,300,390)"/><circle cx="300" cy="410" r="5" transform="rotate(0,300,410)"/><circle cx="300" cy="420" r="5" transform="rotate(0,300,420)"/><circle cx="300" cy="430" r="5" transform="rotate(0,300,430)"/><circle cx="300" cy="460" r="5" transform="rotate(0,300,460)"/><circle cx="300" cy="470" r="5" transform="rotate(0,300,470)"/><circle cx="310" cy="40" r="5" transform="rotate(0,310,40)"/><circle cx="310" cy="60" r="5" transform="rotate(0,310,60)"/><circle cx="310" cy="70" r="5" transform="rotate(0,310,70)"/><circle cx="310" cy="80" r="5" transform="rotate(0,310,80)"/><circle cx="310" cy="90" r="5" transform="rotate(0,310,90)"/><circle cx="310" cy="140" r="5" transform="rotate(0,310,140)"/><circle cx="310" cy="150" r="5" transform="rotate(0,310,150)"/><circle cx="310" cy="160" r="5" transform="rotate(0,310,160)"/><circle cx="310" cy="170" r="5" transform="rotate(0,310,170)"/><circle cx="310" cy="180" r="5" transform="rotate(0,310,180)"/><circle cx="310" cy="190" r="5" transform="rotate(0,310,190)"/><circle cx="310" cy="210" r="5" transform="rotate(0,310,210)"/><circle cx="310" cy="260" r="5" transform="rotate(0,310,260)"/><circle cx="310" cy="280" r="5" transform="rotate(0,310,280)"/><circle cx="310" cy="300" r="5" transform="rotate(0,310,300)"/><circle cx="310" cy="320" r="5" transform="rotate(0,310,320)"/><circle cx="310" cy="350" r="5" transform="rotate(0,310,350)"/><circle cx="310" cy="360" r="5" transform="rotate(0,310,360)"/><circle cx="310" cy="390" r="5" transform="rotate(0,310,390)"/><circle cx="310" cy="430" r="5" transform="rotate(0,310,430)"/><circle cx="310" cy="460" r="5" transform="rotate(0,310,460)"/><circle cx="310" cy="470" r="5" transform="rotate(0,310,470)"/><circle cx="320" cy="30" r="5" transform="rotate(0,320,30)"/><circle cx="320" cy="70" r="5" transform="rotate(0,320,70)"/><circle cx="320" cy="80" r="5" transform="rotate(0,320,80)"/><circle cx="320" cy="100" r="5" transform="rotate(0,320,100)"/><circle cx="320" cy="130" r="5" transform="rotate(0,320,130)"/><circle cx="320" cy="140" r="5" transform="rotate(0,320,140)"/><circle cx="320" cy="150" r="5" transform="rotate(0,320,150)"/><circle cx="320" cy="190" r="5" transform="rotate(0,320,190)"/><circle cx="320" cy="210" r="5" transform="rotate(0,320,210)"/><circle cx="320" cy="220" r="5" transform="rotate(0,320,220)"/><circle cx="320" cy="240" r="5" transform="rotate(0,320,240)"/><circle cx="320" cy="260" r="5" transform="rotate(0,320,260)"/><circle cx="320" cy="320" r="5" transform="rotate(0,320,320)"/><circle cx="320" cy="340" r="5" transform="rotate(0,320,340)"/><circle cx="320" cy="350" r="5" transform="rotate(0,320,350)"/><circle cx="320" cy="390" r="5" transform="rotate(0,320,390)"/><circle cx="320" cy="400" r="5" transform="rotate(0,320,400)"/><circle cx="330" cy="30" r="5" transform="rotate(0,330,30)"/><circle cx="330" cy="50" r="5" transform="rotate(0,330,50)"/><circle cx="330" cy="90" r="5" transform="rotate(0,330,90)"/><circle cx="330" cy="100" r="5" transform="rotate(0,330,100)"/><circle cx="330" cy="110" r="5" transform="rotate(0,330,110)"/><circle cx="330" cy="140" r="5" transform="rotate(0,330,140)"/><circle cx="330" cy="170" r="5" transform="rotate(0,330,170)"/><circle cx="330" cy="190" r="5" transform="rotate(0,330,190)"/><circle cx="330" cy="210" r="5" transform="rotate(0,330,210)"/><circle cx="330" cy="230" r="5" transform="rotate(0,330,230)"/><circle cx="330" cy="240" r="5" transform="rotate(0,330,240)"/><circle cx="330" cy="250" r="5" transform="rotate(0,330,250)"/><circle cx="330" cy="360" r="5" transform="rotate(0,330,360)"/><circle cx="330" cy="370" r="5" transform="rotate(0,330,370)"/><circle cx="330" cy="390" r="5" transform="rotate(0,330,390)"/><circle cx="330" cy="400" r="5" transform="rotate(0,330,400)"/><circle cx="330" cy="410" r="5" transform="rotate(0,330,410)"/><circle cx="330" cy="440" r="5" transform="rotate(0,330,440)"/><circle cx="330" cy="450" r="5" transform="rotate(0,330,450)"/><circle cx="330" cy="460" r="5" transform="rotate(0,330,460)"/><circle cx="330" cy="470" r="5" transform="rotate(0,330,470)"/><circle cx="340" cy="60" r="5" transform="rotate(0,340,60)"/><circle cx="340" cy="70" r="5" transform="rotate(0,340,70)"/><circle cx="340" cy="80" r="5" transform="rotate(0,340,80)"/><circle cx="340" cy="110" r="5" transform="rotate(0,340,110)"/><circle cx="340" cy="120" r="5" transform="rotate(0,340,120)"/><circle cx="340" cy="140" r="5" transform="rotate(0,340,140)"/><circle cx="340" cy="160" r="5" transform="rotate(0,340,160)"/><circle cx="340" cy="170" r="5" transform="rotate(0,340,170)"/><circle cx="340" cy="180" r="5" transform="rotate(0,340,180)"/><circle cx="340" cy="190" r="5" transform="rotate(0,340,190)"/><circle cx="340" cy="240" r="5" transform="rotate(0,340,240)"/><circle cx="340" cy="250" r="5" transform="rotate(0,340,250)"/><circle cx="340" cy="300" r="5" transform="rotate(0,340,300)"/><circle cx="340" cy="310" r="5" transform="rotate(0,340,310)"/><circle cx="340" cy="350" r="5" transform="rotate(0,340,350)"/><circle cx="340" cy="360" r="5" transform="rotate(0,340,360)"/><circle cx="340" cy="390" r="5" transform="rotate(0,340,390)"/><circle cx="340" cy="410" r="5" transform="rotate(0,340,410)"/><circle cx="340" cy="460" r="5" transform="rotate(0,340,460)"/><circle cx="340" cy="470" r="5" transform="rotate(0,340,470)"/><circle cx="350" cy="30" r="5" transform="rotate(0,350,30)"/><circle cx="350" cy="40" r="5" transform="rotate(0,350,40)"/><circle cx="350" cy="70" r="5" transform="rotate(0,350,70)"/><circle cx="350" cy="80" r="5" transform="rotate(0,350,80)"/><circle cx="350" cy="90" r="5" transform="rotate(0,350,90)"/><circle cx="350" cy="100" r="5" transform="rotate(0,350,100)"/><circle cx="350" cy="130" r="5" transform="rotate(0,350,130)"/><circle cx="350" cy="160" r="5" transform="rotate(0,350,160)"/><circle cx="350" cy="170" r="5" transform="rotate(0,350,170)"/><circle cx="350" cy="180" r="5" transform="rotate(0,350,180)"/><circle cx="350" cy="200" r="5" transform="rotate(0,350,200)"/><circle cx="350" cy="230" r="5" transform="rotate(0,350,230)"/><circle cx="350" cy="240" r="5" transform="rotate(0,350,240)"/><circle cx="350" cy="260" r="5" transform="rotate(0,350,260)"/><circle cx="350" cy="270" r="5" transform="rotate(0,350,270)"/><circle cx="350" cy="300" r="5" transform="rotate(0,350,300)"/><circle cx="350" cy="310" r="5" transform="rotate(0,350,310)"/><circle cx="350" cy="320" r="5" transform="rotate(0,350,320)"/><circle cx="350" cy="340" r="5" transform="rotate(0,350,340)"/><circle cx="350" cy="360" r="5" transform="rotate(0,350,360)"/><circle cx="350" cy="370" r="5" transform="rotate(0,350,370)"/><circle cx="350" cy="380" r="5" transform="rotate(0,350,380)"/><circle cx="350" cy="390" r="5" transform="rotate(0,350,390)"/><circle cx="350" cy="410" r="5" transform="rotate(0,350,410)"/><circle cx="350" cy="420" r="5" transform="rotate(0,350,420)"/><circle cx="350" cy="440" r="5" transform="rotate(0,350,440)"/><circle cx="350" cy="470" r="5" transform="rotate(0,350,470)"/><circle cx="360" cy="50" r="5" transform="rotate(0,360,50)"/><circle cx="360" cy="60" r="5" transform="rotate(0,360,60)"/><circle cx="360" cy="100" r="5" transform="rotate(0,360,100)"/><circle cx="360" cy="120" r="5" transform="rotate(0,360,120)"/><circle cx="360" cy="130" r="5" transform="rotate(0,360,130)"/><circle cx="360" cy="150" r="5" transform="rotate(0,360,150)"/><circle cx="360" cy="210" r="5" transform="rotate(0,360,210)"/><circle cx="360" cy="230" r="5" transform="rotate(0,360,230)"/><circle cx="360" cy="240" r="5" transform="rotate(0,360,240)"/><circle cx="360" cy="250" r="5" transform="rotate(0,360,250)"/><circle cx="360" cy="260" r="5" transform="rotate(0,360,260)"/><circle cx="360" cy="320" r="5" transform="rotate(0,360,320)"/><circle cx="360" cy="340" r="5" transform="rotate(0,360,340)"/><circle cx="360" cy="350" r="5" transform="rotate(0,360,350)"/><circle cx="360" cy="360" r="5" transform="rotate(0,360,360)"/><circle cx="360" cy="380" r="5" transform="rotate(0,360,380)"/><circle cx="360" cy="410" r="5" transform="rotate(0,360,410)"/><circle cx="360" cy="440" r="5" transform="rotate(0,360,440)"/><circle cx="360" cy="470" r="5" transform="rotate(0,360,470)"/><circle cx="370" cy="70" r="5" transform="rotate(0,370,70)"/><circle cx="370" cy="90" r="5" transform="rotate(0,370,90)"/><circle cx="370" cy="110" r="5" transform="rotate(0,370,110)"/><circle cx="370" cy="130" r="5" transform="rotate(0,370,130)"/><circle cx="370" cy="150" r="5" transform="rotate(0,370,150)"/><circle cx="370" cy="160" r="5" transform="rotate(0,370,160)"/><circle cx="370" cy="200" r="5" transform="rotate(0,370,200)"/><circle cx="370" cy="220" r="5" transform="rotate(0,370,220)"/><circle cx="370" cy="230" r="5" transform="rotate(0,370,230)"/><circle cx="370" cy="240" r="5" transform="rotate(0,370,240)"/><circle cx="370" cy="260" r="5" transform="rotate(0,370,260)"/><circle cx="370" cy="280" r="5" transform="rotate(0,370,280)"/><circle cx="370" cy="290" r="5" transform="rotate(0,370,290)"/><circle cx="370" cy="310" r="5" transform="rotate(0,370,310)"/><circle cx="370" cy="320" r="5" transform="rotate(0,370,320)"/><circle cx="370" cy="350" r="5" transform="rotate(0,370,350)"/><circle cx="370" cy="370" r="5" transform="rotate(0,370,370)"/><circle cx="370" cy="410" r="5" transform="rotate(0,370,410)"/><circle cx="370" cy="420" r="5" transform="rotate(0,370,420)"/><circle cx="370" cy="470" r="5" transform="rotate(0,370,470)"/><circle cx="380" cy="40" r="5" transform="rotate(0,380,40)"/><circle cx="380" cy="50" r="5" transform="rotate(0,380,50)"/><circle cx="380" cy="60" r="5" transform="rotate(0,380,60)"/><circle cx="380" cy="70" r="5" transform="rotate(0,380,70)"/><circle cx="380" cy="100" r="5" transform="rotate(0,380,100)"/><circle cx="380" cy="200" r="5" transform="rotate(0,380,200)"/><circle cx="380" cy="210" r="5" transform="rotate(0,380,210)"/><circle cx="380" cy="240" r="5" transform="rotate(0,380,240)"/><circle cx="380" cy="250" r="5" transform="rotate(0,380,250)"/><circle cx="380" cy="280" r="5" transform="rotate(0,380,280)"/><circle cx="380" cy="300" r="5" transform="rotate(0,380,300)"/><circle cx="380" cy="310" r="5" transform="rotate(0,380,310)"/><circle cx="380" cy="330" r="5" transform="rotate(0,380,330)"/><circle cx="380" cy="340" r="5" transform="rotate(0,380,340)"/><circle cx="380" cy="380" r="5" transform="rotate(0,380,380)"/><circle cx="380" cy="390" r="5" transform="rotate(0,380,390)"/><circle cx="380" cy="400" r="5" transform="rotate(0,380,400)"/><circle cx="380" cy="410" r="5" transform="rotate(0,380,410)"/><circle cx="380" cy="420" r="5" transform="rotate(0,380,420)"/><circle cx="380" cy="440" r="5" transform="rotate(0,380,440)"/><circle cx="380" cy="460" r="5" transform="rotate(0,380,460)"/><circle cx="380" cy="470" r="5" transform="rotate(0,380,470)"/><circle cx="390" cy="30" r="5" transform="rotate(0,390,30)"/><circle cx="390" cy="60" r="5" transform="rotate(0,390,60)"/><circle cx="390" cy="70" r="5" transform="rotate(0,390,70)"/><circle cx="390" cy="90" r="5" transform="rotate(0,390,90)"/><circle cx="390" cy="100" r="5" transform="rotate(0,390,100)"/><circle cx="390" cy="110" r="5" transform="rotate(0,390,110)"/><circle cx="390" cy="120" r="5" transform="rotate(0,390,120)"/><circle cx="390" cy="130" r="5" transform="rotate(0,390,130)"/><circle cx="390" cy="140" r="5" transform="rotate(0,390,140)"/><circle cx="390" cy="150" r="5" transform="rotate(0,390,150)"/><circle cx="390" cy="170" r="5" transform="rotate(0,390,170)"/><circle cx="390" cy="190" r="5" transform="rotate(0,390,190)"/><circle cx="390" cy="220" r="5" transform="rotate(0,390,220)"/><circle cx="390" cy="230" r="5" transform="rotate(0,390,230)"/><circle cx="390" cy="240" r="5" transform="rotate(0,390,240)"/><circle cx="390" cy="250" r="5" transform="rotate(0,390,250)"/><circle cx="390" cy="260" r="5" transform="rotate(0,390,260)"/><circle cx="390" cy="270" r="5" transform="rotate(0,390,270)"/><circle cx="390" cy="280" r="5" transform="rotate(0,390,280)"/><circle cx="390" cy="300" r="5" transform="rotate(0,390,300)"/><circle cx="390" cy="310" r="5" transform="rotate(0,390,310)"/><circle cx="390" cy="330" r="5" transform="rotate(0,390,330)"/><circle cx="390" cy="340" r="5" transform="rotate(0,390,340)"/><circle cx="390" cy="350" r="5" transform="rotate(0,390,350)"/><circle cx="390" cy="370" r="5" transform="rotate(0,390,370)"/><circle cx="390" cy="390" r="5" transform="rotate(0,390,390)"/><circle cx="390" cy="400" r="5" transform="rotate(0,390,400)"/><circle cx="390" cy="410" r="5" transform="rotate(0,390,410)"/><circle cx="390" cy="420" r="5" transform="rotate(0,390,420)"/><circle cx="390" cy="430" r="5" transform="rotate(0,390,430)"/><circle cx="390" cy="460" r="5" transform="rotate(0,390,460)"/><circle cx="390" cy="470" r="5" transform="rotate(0,390,470)"/><circle cx="400" cy="110" r="5" transform="rotate(0,400,110)"/><circle cx="400" cy="120" r="5" transform="rotate(0,400,120)"/><circle cx="400" cy="130" r="5" transform="rotate(0,400,130)"/><circle cx="400" cy="170" r="5" transform="rotate(0,400,170)"/><circle cx="400" cy="190" r="5" transform="rotate(0,400,190)"/><circle cx="400" cy="200" r="5" transform="rotate(0,400,200)"/><circle cx="400" cy="220" r="5" transform="rotate(0,400,220)"/><circle cx="400" cy="230" r="5" transform="rotate(0,400,230)"/><circle cx="400" cy="270" r="5" transform="rotate(0,400,270)"/><circle cx="400" cy="280" r="5" transform="rotate(0,400,280)"/><circle cx="400" cy="300" r="5" transform="rotate(0,400,300)"/><circle cx="400" cy="310" r="5" transform="rotate(0,400,310)"/><circle cx="400" cy="350" r="5" transform="rotate(0,400,350)"/><circle cx="400" cy="360" r="5" transform="rotate(0,400,360)"/><circle cx="400" cy="370" r="5" transform="rotate(0,400,370)"/><circle cx="400" cy="390" r="5" transform="rotate(0,400,390)"/><circle cx="400" cy="430" r="5" transform="rotate(0,400,430)"/><circle cx="400" cy="440" r="5" transform="rotate(0,400,440)"/><circle cx="400" cy="470" r="5" transform="rotate(0,400,470)"/><circle cx="410" cy="110" r="5" transform="rotate(0,410,110)"/><circle cx="410" cy="120" r="5" transform="rotate(0,410,120)"/><circle cx="410" cy="140" r="5" transform="rotate(0,410,140)"/><circle cx="410" cy="200" r="5" transform="rotate(0,410,200)"/><circle cx="410" cy="230" r="5" transform="rotate(0,410,230)"/><circle cx="410" cy="250" r="5" transform="rotate(0,410,250)"/><circle cx="410" cy="270" r="5" transform="rotate(0,410,270)"/><circle cx="410" cy="280" r="5" transform="rotate(0,410,280)"/><circle cx="410" cy="320" r="5" transform="rotate(0,410,320)"/><circle cx="410" cy="360" r="5" transform="rotate(0,410,360)"/><circle cx="410" cy="380" r="5" transform="rotate(0,410,380)"/><circle cx="410" cy="390" r="5" transform="rotate(0,410,390)"/><circle cx="410" cy="410" r="5" transform="rotate(0,410,410)"/><circle cx="410" cy="430" r="5" transform="rotate(0,410,430)"/><circle cx="410" cy="440" r="5" transform="rotate(0,410,440)"/><circle cx="410" cy="450" r="5" transform="rotate(0,410,450)"/><circle cx="420" cy="110" r="5" transform="rotate(0,420,110)"/><circle cx="420" cy="130" r="5" transform="rotate(0,420,130)"/><circle cx="420" cy="140" r="5" transform="rotate(0,420,140)"/><circle cx="420" cy="170" r="5" transform="rotate(0,420,170)"/><circle cx="420" cy="180" r="5" transform="rotate(0,420,180)"/><circle cx="420" cy="190" r="5" transform="rotate(0,420,190)"/><circle cx="420" cy="220" r="5" transform="rotate(0,420,220)"/><circle cx="420" cy="230" r="5" transform="rotate(0,420,230)"/><circle cx="420" cy="270" r="5" transform="rotate(0,420,270)"/><circle cx="420" cy="280" r="5" transform="rotate(0,420,280)"/><circle cx="420" cy="290" r="5" transform="rotate(0,420,290)"/><circle cx="420" cy="310" r="5" transform="rotate(0,420,310)"/><circle cx="420" cy="350" r="5" transform="rotate(0,420,350)"/><circle cx="420" cy="370" r="5" transform="rotate(0,420,370)"/><circle cx="420" cy="390" r="5" transform="rotate(0,420,390)"/><circle cx="420" cy="430" r="5" transform="rotate(0,420,430)"/><circle cx="420" cy="470" r="5" transform="rotate(0,420,470)"/><circle cx="430" cy="150" r="5" transform="rotate(0,430,150)"/><circle cx="430" cy="160" r="5" transform="rotate(0,430,160)"/><circle cx="430" cy="170" r="5" transform="rotate(0,430,170)"/><circle cx="430" cy="230" r="5" transform="rotate(0,430,230)"/><circle cx="430" cy="240" r="5" transform="rotate(0,430,240)"/><circle cx="430" cy="250" r="5" transform="rotate(0,430,250)"/><circle cx="430" cy="260" r="5" transform="rotate(0,430,260)"/><circle cx="430" cy="270" r="5" transform="rotate(0,430,270)"/><circle cx="430" cy="330" r="5" transform="rotate(0,430,330)"/><circle cx="430" cy="340" r="5" transform="rotate(0,430,340)"/><circle cx="430" cy="350" r="5" transform="rotate(0,430,350)"/><circle cx="430" cy="360" r="5" transform="rotate(0,430,360)"/><circle cx="430" cy="370" r="5" transform="rotate(0,430,370)"/><circle cx="430" cy="390" r="5" transform="rotate(0,430,390)"/><circle cx="430" cy="400" r="5" transform="rotate(0,430,400)"/><circle cx="430" cy="410" r="5" transform="rotate(0,430,410)"/><circle cx="430" cy="420" r="5" transform="rotate(0,430,420)"/><circle cx="430" cy="430" r="5" transform="rotate(0,430,430)"/><circle cx="440" cy="110" r="5" transform="rotate(0,440,110)"/><circle cx="440" cy="120" r="5" transform="rotate(0,440,120)"/><circle cx="440" cy="130" r="5" transform="rotate(0,440,130)"/><circle cx="440" cy="170" r="5" transform="rotate(0,440,170)"/><circle cx="440" cy="190" r="5" transform="rotate(0,440,190)"/><circle cx="440" cy="210" r="5" transform="rotate(0,440,210)"/><circle cx="440" cy="260" r="5" transform="rotate(0,440,260)"/><circle cx="440" cy="270" r="5" transform="rotate(0,440,270)"/><circle cx="440" cy="280" r="5" transform="rotate(0,440,280)"/><circle cx="440" cy="290" r="5" transform="rotate(0,440,290)"/><circle cx="440" cy="340" r="5" transform="rotate(0,440,340)"/><circle cx="440" cy="350" r="5" transform="rotate(0,440,350)"/><circle cx="440" cy="360" r="5" transform="rotate(0,440,360)"/><circle cx="440" cy="380" r="5" transform="rotate(0,440,380)"/><circle cx="440" cy="390" r="5" transform="rotate(0,440,390)"/><circle cx="440" cy="400" r="5" transform="rotate(0,440,400)"/><circle cx="440" cy="410" r="5" transform="rotate(0,440,410)"/><circle cx="440" cy="430" r="5" transform="rotate(0,440,430)"/><circle cx="440" cy="470" r="5" transform="rotate(0,440,470)"/><circle cx="450" cy="150" r="5" transform="rotate(0,450,150)"/><circle cx="450" cy="220" r="5" transform="rotate(0,450,220)"/><circle cx="450" cy="250" r="5" transform="rotate(0,450,250)"/><circle cx="450" cy="260" r="5" transform="rotate(0,450,260)"/><circle cx="450" cy="270" r="5" transform="rotate(0,450,270)"/><circle cx="450" cy="320" r="5" transform="rotate(0,450,320)"/><circle cx="450" cy="350" r="5" transform="rotate(0,450,350)"/><circle cx="450" cy="380" r="5" transform="rotate(0,450,380)"/><circle cx="450" cy="390" r="5" transform="rotate(0,450,390)"/><circle cx="450" cy="410" r="5" transform="rotate(0,450,410)"/><circle cx="450" cy="420" r="5" transform="rotate(0,450,420)"/><circle cx="450" cy="430" r="5" transform="rotate(0,450,430)"/><circle cx="450" cy="440" r="5" transform="rotate(0,450,440)"/><circle cx="450" cy="450" r="5" transform="rotate(0,450,450)"/><circle cx="450" cy="460" r="5" transform="rotate(0,450,460)"/><circle cx="450" cy="470" r="5" transform="rotate(0,450,470)"/><circle cx="460" cy="110" r="5" transform="rotate(0,460,110)"/><circle cx="460" cy="200" r="5" transform="rotate(0,460,200)"/><circle cx="460" cy="220" r="5" transform="rotate(0,460,220)"/><circle cx="460" cy="270" r="5" transform="rotate(0,460,270)"/><circle cx="460" cy="290" r="5" transform="rotate(0,460,290)"/><circle cx="460" cy="310" r="5" transform="rotate(0,460,310)"/><circle cx="460" cy="340" r="5" transform="rotate(0,460,340)"/><circle cx="460" cy="350" r="5" transform="rotate(0,460,350)"/><circle cx="460" cy="390" r="5" transform="rotate(0,460,390)"/><circle cx="460" cy="400" r="5" transform="rotate(0,460,400)"/><circle cx="460" cy="420" r="5" transform="rotate(0,460,420)"/><circle cx="460" cy="430" r="5" transform="rotate(0,460,430)"/><circle cx="470" cy="150" r="5" transform="rotate(0,470,150)"/><circle cx="470" cy="160" r="5" transform="rotate(0,470,160)"/><circle cx="470" cy="190" r="5" transform="rotate(0,470,190)"/><circle cx="470" cy="210" r="5" transform="rotate(0,470,210)"/><circle cx="470" cy="220" r="5" transform="rotate(0,470,220)"/><circle cx="470" cy="230" r="5" transform="rotate(0,470,230)"/><circle cx="470" cy="300" r="5" transform="rotate(0,470,300)"/><circle cx="470" cy="310" r="5" transform="rotate(0,470,310)"/><circle cx="470" cy="320" r="5" transform="rotate(0,470,320)"/><circle cx="470" cy="340" r="5" transform="rotate(0,470,340)"/><circle cx="470" cy="360" r="5" transform="rotate(0,470,360)"/><circle cx="470" cy="370" r="5" transform="rotate(0,470,370)"/><circle cx="470" cy="400" r="5" transform="rotate(0,470,400)"/><circle cx="470" cy="410" r="5" transform="rotate(0,470,410)"/><circle cx="470" cy="420" r="5" transform="rotate(0,470,420)"/><circle cx="470" cy="430" r="5" transform="rotate(0,470,430)"/><circle cx="470" cy="440" r="5" transform="rotate(0,470,440)"/><circle cx="470" cy="460" r="5" transform="rotate(0,470,460)"/><path clip-rule="evenodd" d="M 25 25v 70h 70v -70zM 35 35h 50v 50h -50z" transform="rotate(0,60,60)"/><rect x="45" y="45" width="30" height="30" transform="rotate(0,60,60)"/><path clip-rule="evenodd" d="M 405 25v 70h 70v -70zM 415 35h 50v 50h -50z" transform="rotate(90,440,60)"/><rect x="425" y="45" width="30" height="30" transform="rotate(90,440,60)"/><path clip-rule="evenodd" d="M 25 405v 70h 70v -70zM 35 415h 50v 50h -50z" transform="rotate(-90,60,440)"/><rect x="45" y="425" width="30" height="30" transform="rotate(-90,60,440)"/></clipPath></defs><rect x="0" y="0" height="500" width="500" clip-path="url('#clip-path-background-color')" fill="#fff"/><rect x="0" y="0" height="500" width="500" clip-path="url('#clip-path-dot-color')" fill="#000000"/></svg>